<?xml version="1.0" encoding="UTF-8" standalone="no"?>
<!DOCTYPE svg PUBLIC "-//W3C//DTD SVG 1.1//EN" "http://www.w3.org/Graphics/SVG/1.1/DTD/svg11.dtd">
<svg width="100%" height="100%" viewBox="0 0 301 301" version="1.1" xmlns="http://www.w3.org/2000/svg" xmlns:xlink="http://www.w3.org/1999/xlink" xml:space="preserve" xmlns:serif="http://www.serif.com/" style="fill-rule:evenodd;clip-rule:evenodd;stroke-linejoin:round;stroke-miterlimit:2;">
    <g transform="matrix(1,0,0,1,-355,-1946)">
        <g id="Moon" transform="matrix(0.40806,0,0,0.40806,1476.89,1143.78)">
            <rect x="-2747.49" y="1966.05" width="735.187" height="735.187" style="fill:none;"/>
            <g transform="matrix(1.10434,0,0,1.10434,-4483.6,-170.896)">
                <path d="M1930.75,1957.24C2090.21,1970.65 2215.62,2104.48 2215.62,2267.37C2215.62,2439.14 2076.17,2578.59 1904.4,2578.59C1741.51,2578.59 1607.68,2453.18 1594.28,2293.71C1637.54,2338.24 1698.04,2365.91 1764.95,2365.91C1896.3,2365.91 2002.94,2259.27 2002.94,2127.92C2002.94,2061.01 1975.27,2000.51 1930.75,1957.24Z" style="fill:white;"/>
            </g>
        </g>
    </g>
</svg>
